<svg width="32" height="32" viewBox="0 0 32 32" fill="none" xmlns="http://www.w3.org/2000/svg">
<path fill-rule="evenodd" clip-rule="evenodd" d="M23.532 14.549C21.815 11.742 21.82 7.0525 17.787 6.574C18.1775 5.459 18.6735 3.2455 17.67 1.051C17.59 0.875999 16.931 1.2085 16.994 1.3905C15.994 1.0865 12.5505 0.261498 10.5835 2.6185C8.2955 5.36 4.5 6.54 4.5 6.54C5.6125 6.339 6.733 6.0595 7.806 5.626C8.88 5.1945 9.882 4.6225 10.8485 3.996C11.819 3.381 12.7995 2.7025 13.9245 2.2185C14.4738 1.98042 15.0445 1.79541 15.629 1.666C16.0899 1.5741 16.5574 1.5186 17.027 1.5L17.035 1.524C16.0135 1.673 14.975 1.9505 14.0155 2.417C12.9775 2.918 12.041 3.573 11.057 4.206C10.075 4.836 9.002 5.44 7.8635 5.8395C7.3071 6.03679 6.73817 6.19681 6.1605 6.3185C5.6122 6.42711 5.0576 6.50109 4.5 6.54C4.5 6.54 12.234 8.454 16.321 4.495C16.965 3.871 17.1885 3.0075 17.262 2.365C17.6485 4.248 17.172 5.7605 16.7805 6.542C12.384 6.7625 12.794 11.6585 11.039 14.5495C9.727 16.7105 7.084 19.6485 7.0885 22.826C7.0945 28.275 12.201 31 17.3035 31C22.407 31 27.507 28.276 27.5 22.8255C27.496 19.644 24.8575 16.715 23.532 14.549V14.549ZM24.319 27.001C22.756 28.566 20.1335 29.5005 17.304 29.5005C13.11 29.5005 8.594 27.4105 8.588 22.8235C8.5855 20.8145 10.003 18.7545 11.254 16.9375C11.6425 16.3735 12.009 15.841 12.321 15.3275C12.958 14.2775 13.3265 13.09 13.682 11.9415C14.5605 9.1035 15.082 8.031 17.091 8.031H17.097C19.205 8.033 19.8375 9.2275 20.8775 12.161C21.259 13.2375 21.653 14.351 22.2535 15.3325C22.565 15.8415 22.929 16.3675 23.314 16.926C24.572 18.746 25.9975 20.8085 26.0005 22.828C26.002 24.478 25.4365 25.8825 24.319 27.001" fill="white"/>
</svg>
